<svg width="800" height="100" viewBox="0 0 800 100" fill="none" xmlns="http://www.w3.org/2000/svg">
<path d="M97.4675 35.088H97.0835L86.5875 59.6L76.0915 35.088H75.7075V74H72.1875V29.328H77.1795L86.5235 51.408H86.8435L96.1235 29.328H100.988V74H97.4675V35.088ZM144.035 74L139.811 60.368H122.915L118.627 74H114.659L128.867 29.328H133.923L148.067 74H144.035ZM131.555 33.424H131.107L123.811 57.04H138.851L131.555 33.424ZM176.138 74.768C174.132 74.768 172.34 74.576 170.762 74.192C169.183 73.808 167.754 73.296 166.474 72.656C165.194 71.9733 164.042 71.1627 163.018 70.224C162.036 69.2853 161.14 68.2613 160.33 67.152L163.146 64.848C164.81 66.9813 166.644 68.624 168.65 69.776C170.655 70.8853 173.194 71.44 176.266 71.44C179.85 71.44 182.602 70.6507 184.522 69.072C186.442 67.4507 187.402 65.1253 187.402 62.096C187.402 59.3227 186.591 57.2747 184.97 55.952C183.391 54.6293 181.13 53.7333 178.186 53.264L173.194 52.432C170.975 52.048 169.119 51.472 167.626 50.704C166.175 49.936 165.002 49.04 164.106 48.016C163.21 46.9493 162.57 45.776 162.186 44.496C161.844 43.216 161.674 41.8933 161.674 40.528C161.674 36.5173 162.975 33.5307 165.578 31.568C168.223 29.5627 171.764 28.56 176.202 28.56C179.828 28.56 182.794 29.1573 185.098 30.352C187.444 31.504 189.322 33.104 190.73 35.152L188.042 37.52C186.762 35.728 185.183 34.3413 183.306 33.36C181.471 32.3787 179.06 31.888 176.074 31.888C172.746 31.888 170.143 32.6133 168.266 34.064C166.431 35.472 165.514 37.584 165.514 40.4C165.514 43.0027 166.282 44.9867 167.818 46.352C169.354 47.6747 171.636 48.5707 174.666 49.04L179.594 49.872C181.855 50.256 183.732 50.8533 185.226 51.664C186.719 52.432 187.914 53.3493 188.81 54.416C189.706 55.4827 190.324 56.656 190.666 57.936C191.05 59.216 191.242 60.56 191.242 61.968C191.242 66.064 189.919 69.2213 187.274 71.44C184.628 73.6587 180.916 74.768 176.138 74.768ZM230.705 53.008H211.121V74H207.281V29.328H211.121V49.68H230.705V29.328H234.545V74H230.705V53.008ZM252.376 29.328H267.16C270.786 29.328 273.624 30.3307 275.672 32.336C277.72 34.3413 278.744 37.1573 278.744 40.784C278.744 43.5573 278.146 45.7547 276.952 47.376C275.757 48.9547 274.136 50.064 272.088 50.704V50.832C274.69 51.3867 276.738 52.56 278.232 54.352C279.768 56.1013 280.536 58.512 280.536 61.584C280.536 63.376 280.258 65.04 279.704 66.576C279.149 68.0693 278.36 69.3707 277.336 70.48C276.312 71.5893 275.074 72.464 273.624 73.104C272.216 73.7013 270.637 74 268.888 74H252.376V29.328ZM267.928 70.672C270.744 70.672 272.877 69.968 274.328 68.56C275.778 67.152 276.504 65.296 276.504 62.992V60.368C276.504 58.064 275.778 56.208 274.328 54.8C272.877 53.392 270.744 52.688 267.928 52.688H256.216V70.672H267.928ZM266.84 49.488C269.4 49.488 271.341 48.848 272.664 47.568C274.029 46.288 274.712 44.56 274.712 42.384V39.824C274.712 37.648 274.029 35.92 272.664 34.64C271.341 33.3173 269.4 32.656 266.84 32.656H256.216V49.488H266.84ZM300.671 29.328V56.272C300.671 58.8747 300.777 61.136 300.991 63.056C301.204 64.9333 301.652 66.512 302.335 67.792C303.017 69.0293 303.999 69.9467 305.279 70.544C306.559 71.1413 308.287 71.44 310.463 71.44C312.639 71.44 314.367 71.1413 315.647 70.544C316.927 69.9467 317.908 69.0293 318.591 67.792C319.273 66.512 319.721 64.9333 319.935 63.056C320.148 61.136 320.255 58.8747 320.255 56.272V29.328H324.095V55.504C324.095 58.9173 323.903 61.84 323.519 64.272C323.177 66.6613 322.495 68.6453 321.471 70.224C320.489 71.8027 319.103 72.9547 317.311 73.68C315.561 74.4053 313.279 74.768 310.463 74.768C307.647 74.768 305.343 74.4053 303.551 73.68C301.801 72.9547 300.415 71.8027 299.391 70.224C298.409 68.6453 297.727 66.6613 297.343 64.272C297.001 61.84 296.831 58.9173 296.831 55.504V29.328H300.671ZM346.086 74H342.246V29.328H358.246C362.214 29.328 365.222 30.4587 367.27 32.72C369.318 34.9387 370.342 37.9893 370.342 41.872C370.342 45.4987 369.403 48.4 367.526 50.576C365.691 52.752 362.96 53.9467 359.334 54.16H358.374L370.47 74H366.182L354.406 54.352H346.086V74ZM358.182 51.088C360.87 51.088 362.896 50.3627 364.262 48.912C365.627 47.4613 366.31 45.6267 366.31 43.408V40.336C366.31 38.1173 365.627 36.2827 364.262 34.832C362.896 33.3813 360.87 32.656 358.182 32.656H346.086V51.088H358.182ZM390.22 34.384H389.901V74H386.381V29.328H391.821L409.805 68.944H410.125V29.328H413.645V74H408.205L390.22 34.384ZM500.443 35.088H500.059L489.563 59.6L479.067 35.088H478.683V74H475.163V29.328H480.155L489.499 51.408H489.819L499.099 29.328H503.963V74H500.443V35.088ZM521.346 74V29.328H548.29V32.656H525.186V49.68H547.458V53.008H525.186V70.672H548.29V74H521.346ZM581.032 32.656V74H577.192V32.656H561.896V29.328H596.328V32.656H581.032ZM633.68 53.008H614.095V74H610.256V29.328H614.095V49.68H633.68V29.328H637.52V74H633.68V53.008ZM668.663 74.768C663.5 74.768 659.66 72.848 657.143 69.008C654.668 65.1253 653.431 59.344 653.431 51.664C653.431 43.984 654.668 38.224 657.143 34.384C659.66 30.5013 663.5 28.56 668.663 28.56C673.825 28.56 677.644 30.5013 680.119 34.384C682.636 38.224 683.895 43.984 683.895 51.664C683.895 59.344 682.636 65.1253 680.119 69.008C677.644 72.848 673.825 74.768 668.663 74.768ZM668.663 71.44C672.503 71.44 675.319 69.9893 677.111 67.088C678.903 64.144 679.799 60.0053 679.799 54.672V48.656C679.799 43.3653 678.903 39.248 677.111 36.304C675.319 33.36 672.503 31.888 668.663 31.888C664.823 31.888 662.007 33.36 660.215 36.304C658.423 39.248 657.527 43.3653 657.527 48.656V54.672C657.527 60.0053 658.423 64.144 660.215 67.088C662.007 69.9893 664.823 71.44 668.663 71.44ZM700.637 29.328H712.797C718.216 29.328 722.205 31.2267 724.765 35.024C727.368 38.7787 728.669 44.3253 728.669 51.664C728.669 59.0453 727.368 64.6133 724.765 68.368C722.205 72.1227 718.216 74 712.797 74H700.637V29.328ZM712.669 70.672C716.723 70.672 719.709 69.264 721.629 66.448C723.592 63.5893 724.573 59.6213 724.573 54.544V48.784C724.573 43.7067 723.592 39.76 721.629 36.944C719.709 34.0853 716.723 32.656 712.669 32.656H704.477V70.672H712.669Z" fill="#979797"/>
</svg>
