<svg width="800" height="100" viewBox="0 0 800 100" fill="none" xmlns="http://www.w3.org/2000/svg">
<path d="M96.175 29.328H108.335C113.754 29.328 117.743 31.2267 120.303 35.024C122.906 38.7787 124.207 44.3253 124.207 51.664C124.207 59.0453 122.906 64.6133 120.303 68.368C117.743 72.1227 113.754 74 108.335 74H96.175V29.328ZM108.207 70.672C112.26 70.672 115.247 69.264 117.167 66.448C119.13 63.5893 120.111 59.6213 120.111 54.544V48.784C120.111 43.7067 119.13 39.76 117.167 36.944C115.247 34.0853 112.26 32.656 108.207 32.656H100.015V70.672H108.207ZM153.75 74.768C148.587 74.768 144.747 72.848 142.23 69.008C139.755 65.1253 138.518 59.344 138.518 51.664C138.518 43.984 139.755 38.224 142.23 34.384C144.747 30.5013 148.587 28.56 153.75 28.56C158.913 28.56 162.731 30.5013 165.206 34.384C167.723 38.224 168.982 43.984 168.982 51.664C168.982 59.344 167.723 65.1253 165.206 69.008C162.731 72.848 158.913 74.768 153.75 74.768ZM153.75 71.44C157.59 71.44 160.406 69.9893 162.198 67.088C163.99 64.144 164.886 60.0053 164.886 54.672V48.656C164.886 43.3653 163.99 39.248 162.198 36.304C160.406 33.36 157.59 31.888 153.75 31.888C149.91 31.888 147.094 33.36 145.302 36.304C143.51 39.248 142.614 43.3653 142.614 48.656V54.672C142.614 60.0053 143.51 64.144 145.302 67.088C147.094 69.9893 149.91 71.44 153.75 71.44ZM200.061 74.768C189.394 74.768 184.061 67.0667 184.061 51.664C184.061 36.2613 189.394 28.56 200.061 28.56C201.896 28.56 203.517 28.816 204.925 29.328C206.333 29.84 207.57 30.5227 208.637 31.376C209.704 32.2293 210.6 33.232 211.325 34.384C212.093 35.536 212.733 36.752 213.245 38.032L209.981 39.504C209.554 38.4373 209.042 37.4347 208.445 36.496C207.89 35.5573 207.208 34.7467 206.397 34.064C205.629 33.3813 204.712 32.848 203.645 32.464C202.621 32.08 201.426 31.888 200.061 31.888C196.05 31.888 193.064 33.36 191.101 36.304C189.138 39.2053 188.157 43.3227 188.157 48.656V54.672C188.157 60.0053 189.138 64.144 191.101 67.088C193.064 69.9893 196.05 71.44 200.061 71.44C201.426 71.44 202.621 71.248 203.645 70.864C204.712 70.48 205.629 69.9467 206.397 69.264C207.208 68.5813 207.89 67.792 208.445 66.896C209.042 65.9573 209.554 64.9333 209.981 63.824L213.245 65.296C212.733 66.576 212.093 67.792 211.325 68.944C210.6 70.096 209.704 71.0987 208.637 71.952C207.57 72.8053 206.333 73.488 204.925 74C203.517 74.512 201.896 74.768 200.061 74.768ZM243.3 74.768C241.295 74.768 239.503 74.576 237.924 74.192C236.345 73.808 234.916 73.296 233.636 72.656C232.356 71.9733 231.204 71.1627 230.18 70.224C229.199 69.2853 228.303 68.2613 227.492 67.152L230.308 64.848C231.972 66.9813 233.807 68.624 235.812 69.776C237.817 70.8853 240.356 71.44 243.428 71.44C247.012 71.44 249.764 70.6507 251.684 69.072C253.604 67.4507 254.564 65.1253 254.564 62.096C254.564 59.3227 253.753 57.2747 252.132 55.952C250.553 54.6293 248.292 53.7333 245.348 53.264L240.356 52.432C238.137 52.048 236.281 51.472 234.788 50.704C233.337 49.936 232.164 49.04 231.268 48.016C230.372 46.9493 229.732 45.776 229.348 44.496C229.007 43.216 228.836 41.8933 228.836 40.528C228.836 36.5173 230.137 33.5307 232.74 31.568C235.385 29.5627 238.927 28.56 243.364 28.56C246.991 28.56 249.956 29.1573 252.26 30.352C254.607 31.504 256.484 33.104 257.892 35.152L255.204 37.52C253.924 35.728 252.345 34.3413 250.468 33.36C248.633 32.3787 246.223 31.888 243.236 31.888C239.908 31.888 237.305 32.6133 235.428 34.064C233.593 35.472 232.676 37.584 232.676 40.4C232.676 43.0027 233.444 44.9867 234.98 46.352C236.516 47.6747 238.799 48.5707 241.828 49.04L246.756 49.872C249.017 50.256 250.895 50.8533 252.388 51.664C253.881 52.432 255.076 53.3493 255.972 54.416C256.868 55.4827 257.487 56.656 257.828 57.936C258.212 59.216 258.404 60.56 258.404 61.968C258.404 66.064 257.081 69.2213 254.436 71.44C251.791 73.6587 248.079 74.768 243.3 74.768ZM319.538 29.328H334.322C337.949 29.328 340.786 30.3307 342.834 32.336C344.882 34.3413 345.906 37.1573 345.906 40.784C345.906 43.5573 345.309 45.7547 344.114 47.376C342.919 48.9547 341.298 50.064 339.25 50.704V50.832C341.853 51.3867 343.901 52.56 345.394 54.352C346.93 56.1013 347.698 58.512 347.698 61.584C347.698 63.376 347.421 65.04 346.866 66.576C346.311 68.0693 345.522 69.3707 344.498 70.48C343.474 71.5893 342.237 72.464 340.786 73.104C339.378 73.7013 337.799 74 336.05 74H319.538V29.328ZM335.09 70.672C337.906 70.672 340.039 69.968 341.49 68.56C342.941 67.152 343.666 65.296 343.666 62.992V60.368C343.666 58.064 342.941 56.208 341.49 54.8C340.039 53.392 337.906 52.688 335.09 52.688H323.378V70.672H335.09ZM334.002 49.488C336.562 49.488 338.503 48.848 339.826 47.568C341.191 46.288 341.874 44.56 341.874 42.384V39.824C341.874 37.648 341.191 35.92 339.826 34.64C338.503 33.3173 336.562 32.656 334.002 32.656H323.378V49.488H334.002ZM375.705 74V55.952L359.769 29.328H364.185L377.497 52.112H377.753L391.193 29.328H395.481L379.545 55.952V74H375.705ZM479.847 74L475.623 60.368H458.727L454.439 74H450.471L464.679 29.328H469.735L483.879 74H479.847ZM467.367 33.424H466.919L459.623 57.04H474.663L467.367 33.424ZM522.83 35.088H522.446L511.95 59.6L501.454 35.088H501.07V74H497.55V29.328H502.542L511.886 51.408H512.206L521.486 29.328H526.35V74H522.83V35.088ZM569.397 74L565.173 60.368H548.277L543.989 74H540.021L554.229 29.328H559.285L573.429 74H569.397ZM556.917 33.424H556.469L549.173 57.04H564.213L556.917 33.424ZM591.708 34.384H591.388V74H587.868V29.328H593.308L611.292 68.944H611.612V29.328H615.132V74H609.692L591.708 34.384ZM633.475 29.328H645.635C651.054 29.328 655.043 31.2267 657.603 35.024C660.206 38.7787 661.507 44.3253 661.507 51.664C661.507 59.0453 660.206 64.6133 657.603 68.368C655.043 72.1227 651.054 74 645.635 74H633.475V29.328ZM645.507 70.672C649.56 70.672 652.547 69.264 654.467 66.448C656.43 63.5893 657.411 59.6213 657.411 54.544V48.784C657.411 43.7067 656.43 39.76 654.467 36.944C652.547 34.0853 649.56 32.656 645.507 32.656H637.315V70.672H645.507ZM703.722 74L699.498 60.368H682.602L678.314 74H674.346L688.554 29.328H693.61L707.754 74H703.722ZM691.242 33.424H690.794L683.498 57.04H698.538L691.242 33.424Z" fill="black"/>
</svg>
